  <svg viewBox="-1 -1 140 140" xmlns="http://www.w3.org/2000/svg">
            <path
                d="M73.425 7.425C73.425 11.8305 69.102 16.7178 67.0535 18.7861C66.9167 18.927 66.7529 19.0391 66.5719 19.1156C66.391 19.1921 66.1965 19.2316 66 19.2316C65.8035 19.2316 65.609 19.1921 65.4281 19.1156C65.2471 19.0391 65.0833 18.927 64.9465 18.7861C62.8972 16.7178 58.575 11.8313 58.575 7.425C58.575 5.45577 59.3573 3.56719 60.7497 2.17473C62.1422 0.782275 64.0308 0 66 0C67.9692 0 69.8578 0.782275 71.2503 2.17473C72.6427 3.56719 73.425 5.45577 73.425 7.425ZM58.575 124.575C58.575 120.169 62.898 115.282 64.9465 113.214C65.0833 113.073 65.247 112.961 65.428 112.884C65.609 112.808 65.8035 112.768 66 112.768C66.1965 112.768 66.391 112.808 66.572 112.884C66.753 112.961 66.9167 113.073 67.0535 113.214C69.1028 115.282 73.425 120.169 73.425 124.575C73.425 126.544 72.6427 128.433 71.2503 129.825C69.8578 131.218 67.9692 132 66 132C64.0308 132 62.1422 131.218 60.7497 129.825C59.3573 128.433 58.575 126.544 58.575 124.575ZM124.575 73.425C120.169 73.425 115.282 69.102 113.214 67.0535C113.073 66.9167 112.961 66.753 112.884 66.572C112.808 66.391 112.768 66.1965 112.768 66C112.768 65.8035 112.808 65.609 112.884 65.428C112.961 65.247 113.073 65.0833 113.214 64.9465C115.282 62.8972 120.169 58.575 124.575 58.575C126.544 58.575 128.433 59.3573 129.825 60.7497C131.218 62.1422 132 64.0308 132 66C132 67.9692 131.218 69.8578 129.825 71.2503C128.433 72.6427 126.544 73.425 124.575 73.425ZM7.425 58.575C11.8305 58.575 16.7178 62.898 18.7861 64.9465C18.927 65.0834 19.0391 65.2471 19.1156 65.4281C19.1921 65.609 19.2316 65.8035 19.2316 66C19.2316 66.1965 19.1921 66.391 19.1156 66.5719C19.0391 66.7529 18.927 66.9167 18.7861 67.0535C16.7178 69.1028 11.8313 73.425 7.425 73.425C5.45577 73.425 3.56719 72.6427 2.17473 71.2503C0.782275 69.8578 0 67.9692 0 66C0 64.0308 0.782275 62.1422 2.17473 60.7497C3.56719 59.3573 5.45577 58.575 7.425 58.575ZM112.669 29.832C109.553 32.9472 103.042 33.3465 100.13 33.3605C99.9337 33.3634 99.7386 33.3268 99.5565 33.2529C99.3743 33.179 99.2089 33.0693 99.07 32.9303C98.931 32.7913 98.8214 32.6258 98.7476 32.4436C98.6738 32.2614 98.6373 32.0663 98.6403 31.8698C98.6543 28.9575 99.0528 22.4466 102.169 19.3306C103.561 17.9381 105.45 17.1558 107.419 17.1558C109.388 17.1558 111.277 17.9381 112.669 19.3306C114.062 20.723 114.844 22.6116 114.844 24.5809C114.844 26.5501 114.062 28.4395 112.669 29.832ZM19.3306 102.169C22.4466 99.0528 28.9583 98.6543 31.8706 98.6403C32.067 98.6375 32.2619 98.6742 32.4439 98.7481C32.6259 98.822 32.7912 98.9316 32.93 99.0706C33.0689 99.2095 33.1784 99.3748 33.2522 99.5569C33.326 99.7389 33.3626 99.9339 33.3597 100.13C33.3457 103.042 32.9472 109.553 29.8312 112.669C28.4387 114.062 26.5501 114.844 24.5809 114.844C22.6116 114.844 20.723 114.062 19.3306 112.669C17.9381 111.277 17.1558 109.388 17.1558 107.419C17.1558 105.45 17.9381 103.561 19.3306 102.169ZM102.169 112.669C99.0528 109.553 98.6543 103.042 98.6403 100.13C98.6374 99.9338 98.674 99.7387 98.7478 99.5567C98.8217 99.3746 98.9313 99.2092 99.0703 99.0703C99.2092 98.9313 99.3746 98.8217 99.5567 98.7478C99.7387 98.674 99.9338 98.6374 100.13 98.6403C103.042 98.6543 109.553 99.0528 112.669 102.169C114.062 103.561 114.844 105.45 114.844 107.419C114.844 109.388 114.062 111.277 112.669 112.669C111.277 114.062 109.388 114.844 107.419 114.844C105.45 114.844 103.561 114.062 102.169 112.669ZM29.832 19.3306C32.9472 22.4466 33.3465 28.9583 33.3605 31.8706C33.3633 32.067 33.3266 32.2621 33.2527 32.4441C33.1787 32.6261 33.069 32.7915 32.93 32.9303C32.791 33.0692 32.6255 33.1787 32.4434 33.2525C32.2613 33.3262 32.0662 33.3627 31.8698 33.3597C28.9575 33.3457 22.4466 32.9472 19.3306 29.8312C17.9383 28.4387 17.1562 26.5503 17.1562 24.5813C17.1562 22.6122 17.9383 20.7238 19.3306 19.3314C20.0201 18.6419 20.8386 18.095 21.7394 17.7218C22.6403 17.3487 23.6058 17.1566 24.5809 17.1566C25.5559 17.1566 26.5215 17.3487 27.4223 17.7218C28.3232 18.095 29.1417 18.6419 29.8312 19.3314L29.832 19.3306Z" />
            <path d="M53 65.4634L62.3333 79.4146L81 51.5122" fill="none" stroke="" stroke-width="5"
                stroke-linecap="round" stroke-linejoin="round" />
        </svg>