<svg width="86" height="86" viewBox="0 0 86 86" fill="none"
                                xmlns="http://www.w3.org/2000/svg">
                                <path
                                    d="M37.4445 15.3095C38.9553 9.08214 47.814 9.08214 49.3247 15.3095C49.5514 16.245 49.9957 17.1138 50.6216 17.8451C51.2475 18.5764 52.0372 19.1496 52.9265 19.5181C53.8158 19.8865 54.7795 20.0397 55.7392 19.9653C56.6989 19.8909 57.6275 19.591 58.4494 19.0899C63.9214 15.7563 70.1877 22.0191 66.8542 27.4946C66.3538 28.3162 66.0543 29.2442 65.9801 30.2032C65.9058 31.1623 66.0589 32.1253 66.4269 33.0141C66.795 33.9028 67.3675 34.6922 68.098 35.318C68.8285 35.9439 69.6963 36.3885 70.631 36.6158C76.8584 38.1265 76.8584 46.9852 70.631 48.496C69.6955 48.7226 68.8267 49.167 68.0954 49.7929C67.3641 50.4188 66.7909 51.2085 66.4224 52.0978C66.054 52.9871 65.9007 53.9508 65.9752 54.9105C66.0496 55.8702 66.3495 56.7988 66.8506 57.6207C70.1842 63.0926 63.9214 69.359 58.4458 66.0254C57.6243 65.5251 56.6963 65.2256 55.7373 65.1513C54.7782 65.0771 53.8152 65.2302 52.9264 65.5982C52.0377 65.9662 51.2483 66.5387 50.6225 67.2692C49.9966 67.9997 49.552 68.8676 49.3247 69.8023C47.814 76.0296 38.9553 76.0296 37.4445 69.8023C37.2179 68.8668 36.7735 67.998 36.1476 67.2667C35.5217 66.5353 34.732 65.9621 33.8427 65.5937C32.9534 65.2253 31.9897 65.072 31.03 65.1464C30.0703 65.2208 29.1417 65.5208 28.3198 66.0219C22.8479 69.3554 16.5815 63.0926 19.9151 57.6171C20.4154 56.7956 20.7149 55.8676 20.7892 54.9085C20.8634 53.9495 20.7103 52.9864 20.3423 52.0977C19.9743 51.2089 19.4018 50.4196 18.6713 49.7937C17.9408 49.1679 17.0729 48.7233 16.1382 48.496C9.91088 46.9852 9.91088 38.1265 16.1382 36.6158C17.0737 36.3891 17.9425 35.9448 18.6738 35.3189C19.4052 34.693 19.9784 33.9032 20.3468 33.014C20.7152 32.1247 20.8685 31.161 20.7941 30.2013C20.7197 29.2415 20.4197 28.313 19.9186 27.4911C16.5851 22.0191 22.8479 15.7528 28.3234 19.0863C31.8697 21.2425 36.4657 19.3346 37.4445 15.3095Z"
                                    stroke="" stroke-width="2" stroke-linecap="round" stroke-linejoin="round" />
                                <path
                                    d="M32.7457 42.5558C32.7457 45.3774 33.8666 48.0835 35.8617 50.0787C37.8569 52.0739 40.563 53.1948 43.3846 53.1948C46.2063 53.1948 48.9123 52.0739 50.9075 50.0787C52.9027 48.0835 54.0236 45.3774 54.0236 42.5558C54.0236 39.7342 52.9027 37.0281 50.9075 35.0329C48.9123 33.0377 46.2063 31.9168 43.3846 31.9168C40.563 31.9168 37.8569 33.0377 35.8617 35.0329C33.8666 37.0281 32.7457 39.7342 32.7457 42.5558Z"
                                    stroke="" stroke-width="2" stroke-linecap="round" stroke-linejoin="round" />
                            </svg>