<svg width="86" height="86" viewBox="0 0 86 86" fill="none"
                                xmlns="http://www.w3.org/2000/svg">
                                <path
                                    d="M34.8654 1.02837C35.3521 1.02837 35.8352 1.02837 36.3145 1.02837C31.5773 5.26164 28.5324 10.9575 27.709 17.1259C26.8855 23.2943 28.3357 29.5452 31.8074 34.7919C35.2791 40.0387 40.5528 43.9497 46.7118 45.8449C52.8708 47.7402 59.5257 47.4999 65.5196 45.1659C63.2139 50.5013 59.4455 55.1347 54.6163 58.5719C49.7872 62.0091 44.0784 64.1211 38.0989 64.6827C32.1195 65.2443 26.0937 64.2343 20.6643 61.7606C15.235 59.2868 10.6057 55.4421 7.27021 50.6364C3.93478 45.8308 2.01833 40.2446 1.7253 34.4736C1.43227 28.7027 2.77364 22.9634 5.60635 17.8681C8.43905 12.7728 12.6568 8.51261 17.8098 5.54189C22.9627 2.57117 28.8575 1.00139 34.8654 1V1.02837Z"
                                    stroke="" stroke-width="2" stroke-linecap="round" stroke-linejoin="round" />
                            </svg>