
                        <svg width="86" height="86" viewBox="0 0 86 86" fill="none"
                                xmlns="http://www.w3.org/2000/svg">
                                <g clip-path="url(#clip0_22_1490)">
                                    <path
                                        d="M10.6387 42.555C10.6387 45.3766 11.7596 48.0826 13.7548 50.0777C15.7499 52.0729 18.4559 53.1938 21.2775 53.1938C24.0991 53.1938 26.8051 52.0729 28.8002 50.0777C30.7954 48.0826 31.9162 45.3766 31.9162 42.555C31.9162 39.7334 30.7954 37.0274 28.8002 35.0323C26.8051 33.0371 24.0991 31.9163 21.2775 31.9163C18.4559 31.9163 15.7499 33.0371 13.7548 35.0323C11.7596 37.0274 10.6387 39.7334 10.6387 42.555Z"
                                        stroke="" stroke-width="2" stroke-linecap="round" stroke-linejoin="round" />
                                    <path
                                        d="M53.1937 21.2775C53.1937 24.0991 54.3146 26.8051 56.3097 28.8002C58.3049 30.7954 61.0109 31.9163 63.8325 31.9163C66.654 31.9163 69.3601 30.7954 71.3552 28.8002C73.3504 26.8051 74.4712 24.0991 74.4712 21.2775C74.4712 18.4559 73.3504 15.7499 71.3552 13.7548C69.3601 11.7596 66.654 10.6388 63.8325 10.6388C61.0109 10.6388 58.3049 11.7596 56.3097 13.7548C54.3146 15.7499 53.1937 18.4559 53.1937 21.2775Z"
                                        stroke="" stroke-width="2" stroke-linecap="round" stroke-linejoin="round" />
                                    <path
                                        d="M53.1937 63.8325C53.1937 66.6541 54.3146 69.3601 56.3097 71.3552C58.3049 73.3504 61.0109 74.4713 63.8325 74.4713C66.654 74.4713 69.3601 73.3504 71.3552 71.3552C73.3504 69.3601 74.4712 66.6541 74.4712 63.8325C74.4712 61.0109 73.3504 58.3049 71.3552 56.3098C69.3601 54.3146 66.654 53.1938 63.8325 53.1938C61.0109 53.1938 58.3049 54.3146 56.3097 56.3098C54.3146 58.3049 53.1937 61.0109 53.1937 63.8325Z"
                                        stroke="" stroke-width="2" stroke-linecap="round" stroke-linejoin="round" />
                                    <path d="M30.8524 37.9449L54.2576 25.8876" stroke="" stroke-width="2"
                                        stroke-linecap="round" stroke-linejoin="round" />
                                    <path d="M30.8524 47.1651L54.2576 59.2224" stroke="" stroke-width="2"
                                        stroke-linecap="round" stroke-linejoin="round" />
                                </g>
                            </svg>