<svg width="96" height="96" viewBox="0 0 96 96" fill="none" xmlns="http://www.w3.org/2000/svg">
<g style="mix-blend-mode:hard-light">
<path d="M56.5086 12.9259L56.5032 12.9169C52.5332 9.58604 47.0418 8.8785 42.6401 11.5408C42.1391 8.78856 42.1738 6.19225 42.2111 3.31712V3.31112C42.2111 3.26315 42.2111 3.21518 42.2138 3.16722C42.2138 3.10426 42.1764 3.07428 42.1631 3.02031C42.1471 2.95435 42.1685 2.89439 42.1312 2.82244C41.2252 1.10456 38.8326 0.403016 37.3671 1.59024C37.1779 1.74314 37.1806 2.05794 37.3511 2.19285C37.2419 2.25581 37.1513 2.34875 37.13 2.51364C36.6877 5.82648 37.6922 9.54706 39.0031 12.5901C35.6325 12.4042 32.4991 14.6767 31.0816 18.2534C31.0124 18.4273 30.9884 18.5982 31.0017 18.7511C9.40359 19.0479 -1.81645 45.6765 1.60738 67.5443C5.55078 92.7459 30.1304 97.5398 49.3785 93.9391C68.0084 90.4554 93.2089 78.1064 94.8981 53.5614C96.6167 28.6296 76.2949 13.8253 56.5086 12.9259ZM40.274 13.6784C40.7163 13.6844 40.8229 12.9139 40.3806 12.7999C40.298 12.779 40.2181 12.782 40.1355 12.764C39.6239 11.154 39.1496 9.53807 38.8299 7.86216C38.4942 6.09331 38.4489 4.2705 38.0812 2.51964C38.0599 2.4207 37.9986 2.35175 37.9346 2.28879C39.1576 2.33676 40.0289 2.66954 41.0361 3.53598C40.4286 6.37813 40.8895 9.56505 41.8088 12.3143C41.7848 12.5091 41.8594 12.686 41.9793 12.8359C42.0432 13.0158 42.0912 13.2137 42.1578 13.3876C42.3523 13.8852 43.0584 13.5285 42.9278 13.0218C42.9198 12.9858 42.9172 12.9528 42.9065 12.9169C46.5728 11.0581 50.4203 10.9861 53.8654 12.9798C51.963 13.2856 50.1512 14.0052 48.4779 15.1864C48.0862 15.4622 48.3393 16.2927 48.8083 16.0738C48.9095 16.0258 49.0081 15.9959 49.1094 15.9509C49.0428 16.2177 49.1014 16.5295 49.3305 16.6704C50.6175 17.4619 51.8618 17.6988 52.8796 19.0419C53.4551 19.8004 53.8281 20.6758 54.036 21.6022C52.2401 19.7674 49.914 18.7451 47.3935 18.829C47.2203 18.832 47.1057 18.922 47.0311 19.0419C46.9725 19.0719 46.9112 19.0869 46.8659 19.1468C45.952 20.415 45.6163 22.3008 45.4804 24.0636C44.7876 22.9993 44.3666 21.7341 44.2014 20.409C44.5478 19.8364 44.0842 18.9879 43.4341 19.3897C41.4411 20.6129 39.5386 22.0459 37.6282 23.446C38.0146 21.3834 39.0457 19.6325 40.4339 18.1335C41.1719 17.9986 41.0067 16.5685 40.2554 16.6524C37.876 16.9253 35.4993 17.282 33.1253 17.6358C34.7346 15.0875 37.4337 13.6394 40.274 13.6784ZM92.5641 57.4828C89.047 75.2883 72.1809 85.1458 57.9207 89.7868C40.2287 95.5431 14.8764 96.0797 5.33762 74.9105C-4.87792 52.2333 9.96046 22.3397 31.809 20.0013C32.1368 19.9653 32.2993 19.6955 32.3366 19.4166C34.4735 19.0928 36.6157 18.7751 38.7473 18.4153C37.0314 19.9863 36.1175 22.4926 36.0642 25.008C36.0535 25.5806 36.6583 25.9824 37.0927 25.6736C39.2136 24.1685 41.4011 22.7175 43.4581 21.0925C43.6046 23.1222 44.3666 24.8671 45.587 26.4441C45.9946 26.9717 46.7247 26.522 46.746 25.9044C46.7886 24.7082 46.9165 23.53 47.1723 22.3667C47.3508 21.5602 47.6066 20.7957 47.7318 19.9863C50.391 20.2981 52.7677 21.8091 54.2971 24.3065C54.7154 24.99 55.5467 24.6932 55.6213 23.9017C55.8291 21.7731 55.227 19.7284 54.0093 18.0915C53.1247 16.9013 51.6593 15.6241 50.1911 15.5102C51.9603 14.8356 53.7162 14.5118 55.648 14.4699C55.6959 14.4818 55.7146 14.5298 55.7679 14.5328C75.5035 15.5911 97.6452 31.7686 92.5641 57.4828Z" stroke="#4D4D4D" stroke-width="2"/>
</g>
</svg>
