<svg width="59" height="60" viewBox="0 0 59 60" fill="none" xmlns="http://www.w3.org/2000/svg">
<g style="mix-blend-mode:hard-light">
<path d="M33.3451 14.0818L33.3423 14.0778C31.3151 12.5662 28.5109 12.2451 26.2632 13.4533C26.0074 12.2042 26.0251 11.026 26.0442 9.72118V9.71846C26.0442 9.69669 26.0442 9.67492 26.0455 9.65315C26.0455 9.62458 26.0265 9.61097 26.0197 9.58648C26.0115 9.55655 26.0224 9.52934 26.0033 9.49668C25.5408 8.71707 24.3189 8.39869 23.5706 8.93748C23.474 9.00687 23.4754 9.14973 23.5625 9.21096C23.5067 9.23953 23.4604 9.28171 23.4495 9.35654C23.2237 10.86 23.7366 12.5485 24.406 13.9295C22.6849 13.8451 21.0848 14.8764 20.361 16.4996C20.3256 16.5785 20.3134 16.6561 20.3202 16.7255C9.29131 16.8602 3.5619 28.9449 5.31025 38.8689C7.32391 50.306 19.8753 52.4816 29.7041 50.8475C39.2173 49.2665 52.0857 43.6623 52.9483 32.5232C53.8259 21.2086 43.4487 14.49 33.3451 14.0818ZM25.055 14.4234C25.2809 14.4261 25.3353 14.0764 25.1094 14.0247C25.0673 14.0152 25.0265 14.0165 24.9843 14.0084C24.723 13.2777 24.4809 12.5444 24.3176 11.7838C24.1462 10.9811 24.123 10.1538 23.9353 9.35926C23.9244 9.31436 23.8931 9.28307 23.8604 9.2545C24.4849 9.27627 24.9298 9.42729 25.4441 9.8205C25.1339 11.1103 25.3693 12.5566 25.8387 13.8043C25.8265 13.8927 25.8646 13.973 25.9258 14.041C25.9584 14.1227 25.9829 14.2125 26.017 14.2914C26.1163 14.5172 26.4768 14.3553 26.4102 14.1254C26.4061 14.1091 26.4047 14.0941 26.3993 14.0778C28.2714 13.2342 30.2361 13.2015 31.9954 14.1063C31.0239 14.2451 30.0987 14.5717 29.2443 15.1077C29.0443 15.2329 29.1735 15.6098 29.413 15.5105C29.4647 15.4887 29.515 15.4751 29.5667 15.4547C29.5327 15.5758 29.5626 15.7173 29.6796 15.7812C30.3368 16.1404 30.9722 16.2479 31.4919 16.8574C31.7858 17.2017 31.9763 17.599 32.0824 18.0194C31.1654 17.1867 29.9776 16.7227 28.6905 16.7608C28.6021 16.7622 28.5436 16.803 28.5055 16.8574C28.4755 16.871 28.4442 16.8778 28.4211 16.9051C27.9544 17.4806 27.783 18.3364 27.7136 19.1364C27.3599 18.6534 27.1449 18.0792 27.0605 17.4779C27.2374 17.218 27.0007 16.8329 26.6687 17.0153C25.651 17.5704 24.6795 18.2207 23.704 18.8561C23.9012 17.9201 24.4278 17.1255 25.1367 16.4452C25.5135 16.384 25.4292 15.735 25.0455 15.7731C23.8305 15.8969 22.6169 16.0588 21.4046 16.2193C22.2264 15.0628 23.6046 14.4057 25.055 14.4234ZM51.7565 34.3028C49.9605 42.3833 41.348 46.8569 34.0662 48.9631C25.0319 51.5754 12.0859 51.819 7.21506 42.2119C1.99859 31.9204 9.57567 18.3541 20.7325 17.2928C20.8998 17.2765 20.9828 17.154 21.0018 17.0275C22.093 16.8806 23.1869 16.7363 24.2754 16.5731C23.3992 17.286 22.9325 18.4235 22.9053 19.565C22.8999 19.8249 23.2087 20.0072 23.4305 19.867C24.5135 19.184 25.6305 18.5255 26.6809 17.7881C26.7558 18.7092 27.1449 19.501 27.768 20.2167C27.9762 20.4562 28.349 20.2521 28.3599 19.9718C28.3816 19.4289 28.447 18.8942 28.5776 18.3663C28.6687 18.0003 28.7993 17.6534 28.8633 17.286C30.2212 17.4275 31.4348 18.1133 32.2158 19.2466C32.4294 19.5568 32.8539 19.4221 32.892 19.0629C32.9981 18.0969 32.6906 17.169 32.0688 16.4261C31.6171 15.886 30.8688 15.3064 30.1191 15.2547C31.0225 14.9485 31.9192 14.8016 32.9056 14.7825C32.9301 14.788 32.9396 14.8098 32.9668 14.8111C43.0446 15.2914 54.3511 22.6331 51.7565 34.3028Z" stroke="#FFF4E0" stroke-width="2"/>
</g>
</svg>
